<?xml version="1.0" encoding="UTF-8"?>
<svg id="Layer_2" data-name="Layer 2" xmlns="http://www.w3.org/2000/svg" viewBox="0 0 124.87 62.14">
  <defs>
    <style>
      .cls-1 {
        fill: #bf4a27;
      }

      .cls-2 {
        fill: #0b253d;
      }
    </style>
  </defs>
  <g id="Layer_1-2" data-name="Layer 1">
    <g>
      <polygon class="cls-1" points="0 0 0 8.62 124.87 0 0 0"/>
      <polygon class="cls-2" points="124.87 8.62 124.87 0 0 8.62 124.87 8.62"/>
      <polygon class="cls-1" points="0 17.84 0 26.46 124.87 17.84 0 17.84"/>
      <polygon class="cls-2" points="124.87 26.46 124.87 17.84 0 26.46 124.87 26.46"/>
      <polygon class="cls-1" points="0 35.68 0 44.3 124.87 35.68 0 35.68"/>
      <polygon class="cls-2" points="124.87 44.3 124.87 35.68 0 44.3 124.87 44.3"/>
      <polygon class="cls-1" points="0 53.52 0 62.14 124.87 53.52 0 53.52"/>
      <polygon class="cls-2" points="124.87 62.14 124.87 53.52 0 62.14 124.87 62.14"/>
    </g>
  </g>
</svg>