<?xml version="1.0" encoding="UTF-8"?>
<svg id="Layer_2" data-name="Layer 2" xmlns="http://www.w3.org/2000/svg" xmlns:xlink="http://www.w3.org/1999/xlink" viewBox="0 0 214.43 399.94">
  <defs>
    <style>
      .cls-1 {
        fill: #c14a29;
      }

      .cls-2 {
        fill: #973b22;
      }

      .cls-3 {
        fill: #fff;
      }

      .cls-4 {
        fill: #0f2b4c;
      }

      .cls-5 {
        fill: #db7b5d;
      }

      .cls-6 {
        fill: #83301d;
      }

      .cls-7 {
        fill: none;
      }

      .cls-8 {
        fill: #f2f2f3;
      }

      .cls-9 {
        fill: #e5e5e5;
      }

      .cls-10 {
        fill: #d16e54;
      }

      .cls-11 {
        fill: #d8532a;
      }

      .cls-12 {
        clip-path: url(#clippath);
      }
    </style>
    <clipPath id="clippath">
      <circle class="cls-7" cx="101.75" cy="160.62" r="89.71"/>
    </clipPath>
  </defs>
  <g id="Layer_1-2" data-name="Layer 1">
    <g class="cls-12">
      <rect class="cls-4" width="214.43" height="308.9"/>
      <g>
        <g>
          <g>
            <g>
              <polygon class="cls-10" points="91.84 355.83 91.84 399.94 70.62 355.83 91.84 355.83"/>
              <polygon class="cls-5" points="83.38 382.36 58.58 399.94 91.84 399.94 83.38 382.36"/>
            </g>
            <rect class="cls-4" x="58.22" y="395.6" width="33.63" height="4.35"/>
            <polygon class="cls-4" points="74.75 388.48 63.75 391.71 58.22 395.6 68.11 395.6 74.75 388.48"/>
            <polygon class="cls-4" points="83.38 382.36 76.84 386.83 72.47 395.6 87.08 395.6 83.38 382.36"/>
          </g>
          <g>
            <g>
              <polygon class="cls-10" points="113.72 355.83 113.72 399.94 134.95 355.83 113.72 355.83"/>
              <polygon class="cls-5" points="122.19 382.36 146.99 399.94 113.72 399.94 122.19 382.36"/>
            </g>
            <rect class="cls-4" x="113.72" y="395.6" width="33.63" height="4.35" transform="translate(261.08 795.54) rotate(180)"/>
            <polygon class="cls-4" points="130.82 388.48 141.82 391.71 147.35 395.6 137.46 395.6 130.82 388.48"/>
            <polygon class="cls-4" points="122.19 382.36 128.73 386.83 133.09 395.6 118.48 395.6 122.19 382.36"/>
          </g>
          <polygon class="cls-8" points="100.54 169.36 53.83 184.36 55.95 370.49 103.72 370.49 103.72 167.98 100.54 169.36"/>
          <polygon class="cls-3" points="106.42 169.36 153.13 184.36 148.91 370.49 103.24 370.49 103.24 167.98 106.42 169.36"/>
          <polygon class="cls-10" points="88.95 173.08 103.24 179.23 103.24 167.56 88.95 173.08"/>
          <polygon class="cls-10" points="117.52 173.08 103.24 179.23 103.24 167.56 117.52 173.08"/>
          <g>
            <polygon class="cls-5" points="103.29 121.1 105.7 121.1 129.65 129.02 138.55 129.02 138.55 157.06 103.29 173.37 103.29 121.1"/>
            <polygon class="cls-10" points="103.29 121.1 100.87 121.1 76.92 129.02 68.02 129.02 68.02 157.06 103.29 173.37 103.29 121.1"/>
          </g>
          <g>
            <g>
              <polygon class="cls-9" points="99.36 186.29 99.36 191.72 97.9 190.26 97.9 187.33 99.36 186.29"/>
              <polygon class="cls-3" points="99.36 186.29 99.36 191.72 100.82 190.26 100.82 187.33 99.36 186.29"/>
            </g>
            <g>
              <polygon class="cls-9" points="99.36 178.76 99.36 189.61 96.44 186.69 96.44 180.84 99.36 178.76"/>
              <polygon class="cls-3" points="99.36 178.76 99.36 189.61 102.28 186.69 102.28 180.84 99.36 178.76"/>
            </g>
            <g>
              <polygon class="cls-9" points="99.36 188.71 99.36 199.57 96.44 196.65 96.44 190.8 99.36 188.71"/>
              <polygon class="cls-3" points="99.36 188.71 99.36 199.57 102.28 196.65 102.28 190.8 99.36 188.71"/>
            </g>
          </g>
          <polygon class="cls-9" points="106.6 177.79 106.6 231.81 103.34 235.06 103.24 179.23 106.6 177.79"/>
          <g>
            <polygon class="cls-3" points="104.84 180.57 103.83 179.9 104.84 179.23 106.01 179.9 104.84 180.57"/>
            <polygon class="cls-3" points="104.84 182.18 103.83 181.51 104.84 180.84 106.01 181.51 104.84 182.18"/>
            <polygon class="cls-3" points="104.84 183.79 103.83 183.12 104.84 182.45 106.01 183.12 104.84 183.79"/>
            <polygon class="cls-3" points="104.84 185.4 103.83 184.73 104.84 184.06 106.01 184.73 104.84 185.4"/>
            <polygon class="cls-3" points="104.84 187 103.83 186.34 104.84 185.67 106.01 186.34 104.84 187"/>
            <polygon class="cls-3" points="104.84 188.61 103.83 187.94 104.84 187.27 106.01 187.94 104.84 188.61"/>
            <polygon class="cls-3" points="104.84 190.22 103.83 189.55 104.84 188.88 106.01 189.55 104.84 190.22"/>
            <polygon class="cls-3" points="104.84 191.83 103.83 191.16 104.84 190.49 106.01 191.16 104.84 191.83"/>
            <polygon class="cls-3" points="104.84 193.44 103.83 192.77 104.84 192.1 106.01 192.77 104.84 193.44"/>
            <polygon class="cls-3" points="104.84 195.04 103.83 194.38 104.84 193.71 106.01 194.38 104.84 195.04"/>
            <polygon class="cls-3" points="104.84 196.65 103.83 195.98 104.84 195.32 106.01 195.98 104.84 196.65"/>
            <polygon class="cls-3" points="104.84 198.26 103.83 197.59 104.84 196.92 106.01 197.59 104.84 198.26"/>
            <polygon class="cls-3" points="104.84 199.87 103.83 199.2 104.84 198.53 106.01 199.2 104.84 199.87"/>
            <polygon class="cls-3" points="104.84 201.48 103.83 200.81 104.84 200.14 106.01 200.81 104.84 201.48"/>
            <polygon class="cls-3" points="104.84 203.09 103.83 202.42 104.84 201.75 106.01 202.42 104.84 203.09"/>
            <polygon class="cls-3" points="104.84 204.69 103.83 204.02 104.84 203.36 106.01 204.02 104.84 204.69"/>
            <polygon class="cls-3" points="104.84 206.3 103.83 205.63 104.84 204.96 106.01 205.63 104.84 206.3"/>
            <polygon class="cls-3" points="104.84 207.91 103.83 207.24 104.84 206.57 106.01 207.24 104.84 207.91"/>
            <polygon class="cls-3" points="104.84 209.52 103.83 208.85 104.84 208.18 106.01 208.85 104.84 209.52"/>
            <polygon class="cls-3" points="104.84 211.13 103.83 210.46 104.84 209.79 106.01 210.46 104.84 211.13"/>
            <polygon class="cls-3" points="104.84 212.73 103.83 212.07 104.84 211.4 106.01 212.07 104.84 212.73"/>
            <polygon class="cls-3" points="104.84 214.34 103.83 213.67 104.84 213.01 106.01 213.67 104.84 214.34"/>
            <polygon class="cls-3" points="104.84 215.95 103.83 215.28 104.84 214.61 106.01 215.28 104.84 215.95"/>
            <polygon class="cls-3" points="104.84 217.56 103.83 216.89 104.84 216.22 106.01 216.89 104.84 217.56"/>
            <polygon class="cls-3" points="104.84 219.17 103.83 218.5 104.84 217.83 106.01 218.5 104.84 219.17"/>
            <polygon class="cls-3" points="104.84 220.77 103.83 220.11 104.84 219.44 106.01 220.11 104.84 220.77"/>
            <polygon class="cls-3" points="104.84 222.38 103.83 221.71 104.84 221.05 106.01 221.71 104.84 222.38"/>
            <polygon class="cls-3" points="104.84 223.99 103.83 223.32 104.84 222.65 106.01 223.32 104.84 223.99"/>
            <polygon class="cls-3" points="104.84 225.6 103.83 224.93 104.84 224.26 106.01 224.93 104.84 225.6"/>
            <polygon class="cls-3" points="104.84 227.21 103.83 226.54 104.84 225.87 106.01 226.54 104.84 227.21"/>
            <polygon class="cls-3" points="104.84 228.82 103.83 228.15 104.84 227.48 106.01 228.15 104.84 228.82"/>
            <polygon class="cls-3" points="104.84 230.42 103.83 229.75 104.84 229.09 106.01 229.75 104.84 230.42"/>
            <polygon class="cls-3" points="104.84 232.03 103.83 231.36 104.84 230.69 106.01 231.36 104.84 232.03"/>
          </g>
          <polygon class="cls-10" points="72.66 281.57 84.42 302.96 79.62 305.11 74.01 296.34 74.38 314.27 61.74 307.36 64.32 284.72 72.66 281.57"/>
          <polygon class="cls-3" points="53.83 184.36 42.5 204.02 57.28 294.21 83.95 284.56 53.83 184.36"/>
          <polygon class="cls-10" points="145.39 282.46 129.97 301.39 134.31 304.37 141.4 296.75 137.81 314.32 151.49 309.8 153.03 287.07 145.39 282.46"/>
          <polygon class="cls-8" points="153.12 184.36 164.46 204.02 161.01 294.21 137.28 283.55 153.12 184.36"/>
        </g>
        <g>
          <polygon class="cls-6" points="59.22 106.48 65.76 94.42 113.24 87.19 105.58 102.06 59.22 106.48"/>
          <path class="cls-2" d="M147.88,96.42l-46.01-7.91-6.64,14.92s60.08,5.45,60.12,4.59c.04-.86-7.48-11.6-7.48-11.6Z"/>
          <polygon class="cls-11" points="101.88 88.5 113.24 87.19 147.88 96.42 101.88 88.5"/>
          <polygon class="cls-11" points="98.99 95 155.36 108.02 154.89 117.37 95.23 103.43 98.99 95"/>
          <polygon class="cls-1" points="98.99 95 59.22 106.48 55.66 118.43 98.5 103.72 98.99 95"/>
          <polygon class="cls-6" points="55.66 118.43 54.51 126.01 99.21 112.37 98.5 103.72 55.66 118.43"/>
          <polygon class="cls-2" points="154.33 128.37 99.21 112.37 98.5 103.72 154.89 117.37 154.33 128.37"/>
          <polygon class="cls-1" points="101.63 124.29 58.18 135.63 54.51 126.01 99.21 112.37 101.63 124.29"/>
          <polygon class="cls-11" points="154.33 128.37 149.25 136.03 101.63 124.29 99.21 112.37 154.33 128.37"/>
          <polygon class="cls-1" points="113.24 87.19 88.4 86.59 65.76 94.42 101.63 89.05 113.24 87.19"/>
          <polygon class="cls-11" points="58.18 135.63 65.88 144.79 73.43 143.3 75.75 131.04 58.18 135.63"/>
          <polygon class="cls-1" points="149.25 136.03 142.9 144.06 137.05 143.05 131.28 131.6 149.25 136.03"/>
          <polygon class="cls-2" points="75.75 131.04 68.46 139.12 66.39 144.69 73.43 143.3 75.75 131.04"/>
          <polygon class="cls-2" points="137.05 143.05 131.28 131.6 140.07 137.62 142.9 144.06 137.05 143.05"/>
        </g>
      </g>
    </g>
  </g>
</svg>