<?xml version="1.0" encoding="UTF-8"?>
<svg id="Layer_2" data-name="Layer 2" xmlns="http://www.w3.org/2000/svg" xmlns:xlink="http://www.w3.org/1999/xlink" viewBox="0 0 179.43 179.43">
  <defs>
    <style>
      .cls-1 {
        fill: #c14a29;
      }

      .cls-2 {
        fill: #973b22;
      }

      .cls-3 {
        fill: #fff;
      }

      .cls-4 {
        fill: #0f2b4c;
      }

      .cls-5 {
        fill: #db7b5d;
      }

      .cls-6 {
        fill: #83301d;
      }

      .cls-7 {
        fill: none;
      }

      .cls-8 {
        fill: #f2f2f3;
      }

      .cls-9 {
        fill: #e5e5e5;
      }

      .cls-10 {
        fill: #d16e54;
      }

      .cls-11 {
        fill: #d8532a;
      }

      .cls-12 {
        clip-path: url(#clippath);
      }
    </style>
    <clipPath id="clippath">
      <circle class="cls-7" cx="89.71" cy="89.71" r="89.71"/>
    </clipPath>
  </defs>
  <g id="Layer_1-2" data-name="Layer 1">
    <g class="cls-12">
      <rect class="cls-4" x="-12.03" y="-70.91" width="214.43" height="308.9"/>
      <g>
        <g>
          <polygon class="cls-8" points="88.51 98.45 41.8 113.46 43.92 299.58 91.69 299.58 91.69 97.07 88.51 98.45"/>
          <polygon class="cls-3" points="94.39 98.45 141.1 113.46 136.88 299.58 91.21 299.58 91.21 97.07 94.39 98.45"/>
          <polygon class="cls-10" points="76.92 102.17 91.21 108.33 91.21 96.65 76.92 102.17"/>
          <polygon class="cls-10" points="105.49 102.17 91.21 108.33 91.21 96.65 105.49 102.17"/>
          <g>
            <polygon class="cls-5" points="91.25 50.19 93.67 50.19 117.62 58.12 126.52 58.12 126.52 86.15 91.25 102.46 91.25 50.19"/>
            <polygon class="cls-10" points="91.25 50.19 88.84 50.19 64.89 58.12 55.99 58.12 55.99 86.15 91.25 102.46 91.25 50.19"/>
          </g>
          <g>
            <g>
              <polygon class="cls-9" points="87.33 115.38 87.33 120.81 85.87 119.35 85.87 116.42 87.33 115.38"/>
              <polygon class="cls-3" points="87.33 115.38 87.33 120.81 88.79 119.35 88.79 116.42 87.33 115.38"/>
            </g>
            <g>
              <polygon class="cls-9" points="87.33 107.85 87.33 118.71 84.41 115.78 84.41 109.93 87.33 107.85"/>
              <polygon class="cls-3" points="87.33 107.85 87.33 118.71 90.25 115.78 90.25 109.93 87.33 107.85"/>
            </g>
            <g>
              <polygon class="cls-9" points="87.33 117.81 87.33 128.66 84.41 125.74 84.41 119.89 87.33 117.81"/>
              <polygon class="cls-3" points="87.33 117.81 87.33 128.66 90.25 125.74 90.25 119.89 87.33 117.81"/>
            </g>
          </g>
          <polygon class="cls-9" points="94.57 106.88 94.57 160.9 91.31 164.16 91.21 108.33 94.57 106.88"/>
          <g>
            <polygon class="cls-3" points="92.8 109.66 91.8 108.99 92.8 108.33 93.97 108.99 92.8 109.66"/>
            <polygon class="cls-3" points="92.8 111.27 91.8 110.6 92.8 109.93 93.97 110.6 92.8 111.27"/>
            <polygon class="cls-3" points="92.8 112.88 91.8 112.21 92.8 111.54 93.97 112.21 92.8 112.88"/>
            <polygon class="cls-3" points="92.8 114.49 91.8 113.82 92.8 113.15 93.97 113.82 92.8 114.49"/>
            <polygon class="cls-3" points="92.8 116.1 91.8 115.43 92.8 114.76 93.97 115.43 92.8 116.1"/>
            <polygon class="cls-3" points="92.8 117.7 91.8 117.04 92.8 116.37 93.97 117.04 92.8 117.7"/>
            <polygon class="cls-3" points="92.8 119.31 91.8 118.64 92.8 117.98 93.97 118.64 92.8 119.31"/>
            <polygon class="cls-3" points="92.8 120.92 91.8 120.25 92.8 119.58 93.97 120.25 92.8 120.92"/>
            <polygon class="cls-3" points="92.8 122.53 91.8 121.86 92.8 121.19 93.97 121.86 92.8 122.53"/>
            <polygon class="cls-3" points="92.8 124.14 91.8 123.47 92.8 122.8 93.97 123.47 92.8 124.14"/>
            <polygon class="cls-3" points="92.8 125.74 91.8 125.08 92.8 124.41 93.97 125.08 92.8 125.74"/>
            <polygon class="cls-3" points="92.8 127.35 91.8 126.68 92.8 126.02 93.97 126.68 92.8 127.35"/>
            <polygon class="cls-3" points="92.8 128.96 91.8 128.29 92.8 127.62 93.97 128.29 92.8 128.96"/>
            <polygon class="cls-3" points="92.8 130.57 91.8 129.9 92.8 129.23 93.97 129.9 92.8 130.57"/>
            <polygon class="cls-3" points="92.8 132.18 91.8 131.51 92.8 130.84 93.97 131.51 92.8 132.18"/>
            <polygon class="cls-3" points="92.8 133.79 91.8 133.12 92.8 132.45 93.97 133.12 92.8 133.79"/>
            <polygon class="cls-3" points="92.8 135.39 91.8 134.72 92.8 134.06 93.97 134.72 92.8 135.39"/>
            <polygon class="cls-3" points="92.8 137 91.8 136.33 92.8 135.66 93.97 136.33 92.8 137"/>
            <polygon class="cls-3" points="92.8 138.61 91.8 137.94 92.8 137.27 93.97 137.94 92.8 138.61"/>
            <polygon class="cls-3" points="92.8 140.22 91.8 139.55 92.8 138.88 93.97 139.55 92.8 140.22"/>
            <polygon class="cls-3" points="92.8 141.83 91.8 141.16 92.8 140.49 93.97 141.16 92.8 141.83"/>
            <polygon class="cls-3" points="92.8 143.43 91.8 142.77 92.8 142.1 93.97 142.77 92.8 143.43"/>
            <polygon class="cls-3" points="92.8 145.04 91.8 144.37 92.8 143.71 93.97 144.37 92.8 145.04"/>
            <polygon class="cls-3" points="92.8 146.65 91.8 145.98 92.8 145.31 93.97 145.98 92.8 146.65"/>
            <polygon class="cls-3" points="92.8 148.26 91.8 147.59 92.8 146.92 93.97 147.59 92.8 148.26"/>
            <polygon class="cls-3" points="92.8 149.87 91.8 149.2 92.8 148.53 93.97 149.2 92.8 149.87"/>
            <polygon class="cls-3" points="92.8 151.47 91.8 150.81 92.8 150.14 93.97 150.81 92.8 151.47"/>
            <polygon class="cls-3" points="92.8 153.08 91.8 152.41 92.8 151.75 93.97 152.41 92.8 153.08"/>
            <polygon class="cls-3" points="92.8 154.69 91.8 154.02 92.8 153.35 93.97 154.02 92.8 154.69"/>
            <polygon class="cls-3" points="92.8 156.3 91.8 155.63 92.8 154.96 93.97 155.63 92.8 156.3"/>
            <polygon class="cls-3" points="92.8 157.91 91.8 157.24 92.8 156.57 93.97 157.24 92.8 157.91"/>
            <polygon class="cls-3" points="92.8 159.52 91.8 158.85 92.8 158.18 93.97 158.85 92.8 159.52"/>
            <polygon class="cls-3" points="92.8 161.12 91.8 160.46 92.8 159.79 93.97 160.46 92.8 161.12"/>
          </g>
          <polygon class="cls-3" points="41.8 113.46 30.47 133.12 45.25 223.31 71.92 213.66 41.8 113.46"/>
          <polygon class="cls-8" points="141.09 113.46 152.43 133.12 148.98 223.31 125.25 212.65 141.09 113.46"/>
        </g>
        <g>
          <polygon class="cls-6" points="47.19 35.57 53.73 23.51 101.2 16.29 93.55 31.15 47.19 35.57"/>
          <path class="cls-2" d="M135.85,25.51l-46.01-7.91-6.64,14.92s60.08,5.45,60.12,4.59c.04-.86-7.48-11.6-7.48-11.6Z"/>
          <polygon class="cls-11" points="89.84 17.6 101.2 16.29 135.85 25.51 89.84 17.6"/>
          <polygon class="cls-11" points="86.96 24.09 143.33 37.11 142.86 46.46 83.2 32.52 86.96 24.09"/>
          <polygon class="cls-1" points="86.96 24.09 47.19 35.57 43.62 47.52 86.47 32.81 86.96 24.09"/>
          <polygon class="cls-6" points="43.62 47.52 42.48 55.1 87.18 41.46 86.47 32.81 43.62 47.52"/>
          <polygon class="cls-2" points="142.3 57.47 87.18 41.46 86.47 32.81 142.86 46.46 142.3 57.47"/>
          <polygon class="cls-1" points="89.6 53.38 46.15 64.72 42.48 55.1 87.18 41.46 89.6 53.38"/>
          <polygon class="cls-11" points="142.3 57.47 137.22 65.13 89.6 53.38 87.18 41.46 142.3 57.47"/>
          <polygon class="cls-1" points="101.2 16.29 76.37 15.68 53.73 23.51 89.6 18.14 101.2 16.29"/>
          <polygon class="cls-11" points="46.15 64.72 53.85 73.89 61.4 72.39 63.72 60.14 46.15 64.72"/>
          <polygon class="cls-1" points="137.22 65.13 130.87 73.15 125.02 72.14 119.25 60.69 137.22 65.13"/>
          <polygon class="cls-2" points="63.72 60.14 56.43 68.21 54.36 73.78 61.4 72.39 63.72 60.14"/>
          <polygon class="cls-2" points="125.02 72.14 119.25 60.69 128.04 66.71 130.87 73.15 125.02 72.14"/>
        </g>
      </g>
    </g>
  </g>
</svg>